MulatAbay-ThinItalic.ufo
<glyph name="parenleft" format="2">
  <advance width="607"/>
  <unicode hex="0028"/>
  <note>
uni0028
</note>
  <outline>
    <contour>
      <point x="288" y="-470" type="curve"/>
      <point x="315" y="-427" type="line"/>
      <point x="167" y="-316"/>
      <point x="104" y="-36"/>
      <point x="90" y="163" type="curve" smooth="yes"/>
      <point x="80" y="298"/>
      <point x="87" y="432"/>
      <point x="120" y="616" type="curve" smooth="yes"/>
      <point x="170" y="876"/>
      <point x="294" y="1160"/>
      <point x="446" y="1363" type="curve" smooth="yes"/>
      <point x="521" y="1464"/>
      <point x="596" y="1537"/>
      <point x="669" y="1580" type="curve"/>
      <point x="657" y="1623" type="line"/>
      <point x="490" y="1528"/>
      <point x="309" y="1290"/>
      <point x="188" y="1011" type="curve" smooth="yes"/>
      <point x="129" y="872"/>
      <point x="86" y="730"/>
      <point x="61" y="586" type="curve" smooth="yes"/>
      <point x="3" y="259"/>
      <point x="27" y="-27"/>
      <point x="118" y="-239" type="curve" smooth="yes"/>
      <point x="163" y="-344"/>
      <point x="220" y="-421"/>
    </contour>
  </outline>
</glyph>
<glyph name="zero" format="2">
  <advance width="1121"/>
  <unicode hex="0030"/>
  <note>
uni0030
</note>
  <outline>
    <contour>
      <point x="368" y="-20" type="curve" smooth="yes"/>
      <point x="642" y="-20"/>
      <point x="841" y="203"/>
      <point x="910" y="594" type="curve" smooth="yes"/>
      <point x="957" y="858" type="line" smooth="yes"/>
      <point x="1026" y="1250"/>
      <point x="906" y="1477"/>
      <point x="630" y="1477" type="curve" smooth="yes"/>
      <point x="355" y="1477"/>
      <point x="154" y="1249"/>
      <point x="86" y="862" type="curve" smooth="yes"/>
      <point x="40" y="598" type="line" smooth="yes"/>
      <point x="-29" y="206"/>
      <point x="94" y="-20"/>
    </contour>
    <contour>
      <point x="377" y="34" type="curve" smooth="yes"/>
      <point x="136" y="34"/>
      <point x="31" y="244"/>
      <point x="93" y="596" type="curve" smooth="yes"/>
      <point x="139" y="857" type="line" smooth="yes"/>
      <point x="203" y="1216"/>
      <point x="375" y="1423"/>
      <point x="620" y="1423" type="curve" smooth="yes"/>
      <point x="864" y="1423"/>
      <point x="966" y="1215"/>
      <point x="903" y="862" type="curve" smooth="yes"/>
      <point x="857" y="601" type="line" smooth="yes"/>
      <point x="794" y="242"/>
      <point x="620" y="34"/>
    </contour>
  </outline>
</glyph>
<glyph name="less" format="2">
  <advance width="1053"/>
  <unicode hex="003C"/>
  <note>
uni003C
</note>
  <outline>
    <contour>
      <point x="774" y="262" type="line"/>
      <point x="785" y="321" type="line"/>
      <point x="82" y="666" type="line"/>
      <point x="906" y="1011" type="line"/>
      <point x="917" y="1069" type="line"/>
      <point x="13" y="691" type="line"/>
      <point x="4" y="641" type="line"/>
    </contour>
  </outline>
</glyph>
<glyph name="F" format="2">
  <advance width="1172"/>
  <unicode hex="0046"/>
  <note>
uni0046
</note>
  <outline>
    <contour>
      <point x="9" y="0" type="line"/>
      <point x="63" y="0" type="line"/>
      <point x="189" y="716" type="line"/>
      <point x="935" y="716" type="line"/>
      <point x="945" y="772" type="line"/>
      <point x="199" y="772" type="line"/>
      <point x="310" y="1402" type="line"/>
      <point x="1158" y="1402" type="line"/>
      <point x="1168" y="1456" type="line"/>
      <point x="266" y="1456" type="line"/>
    </contour>
  </outline>
</glyph>
<glyph name="X" format="2">
  <advance width="1223"/>
  <unicode hex="0058"/>
  <note>
uni0058
</note>
  <outline>
    <contour>
      <point x="-137" y="0" type="line"/>
      <point x="-72" y="0" type="line"/>
      <point x="544" y="701" type="line"/>
      <point x="910" y="0" type="line"/>
      <point x="977" y="0" type="line"/>
      <point x="585" y="743" type="line"/>
      <point x="1215" y="1456" type="line"/>
      <point x="1147" y="1456" type="line"/>
      <point x="559" y="785" type="line"/>
      <point x="207" y="1456" type="line"/>
      <point x="139" y="1456" type="line"/>
      <point x="517" y="743" type="line"/>
    </contour>
  </outline>
</glyph>
<glyph name="a" format="2">
  <advance width="1081"/>
  <unicode hex="0061"/>
  <note>
uni0061
</note>
  <outline>
    <contour>
      <point x="231" y="-20" type="curve" smooth="yes"/>
      <point x="417" y="-20"/>
      <point x="585" y="59"/>
      <point x="695" y="198" type="curve"/>
      <point x="680" y="112"/>
      <point x="675" y="46"/>
      <point x="680" y="0" type="curve"/>
      <point x="742" y="0" type="line"/>
      <point x="744" y="9" type="line"/>
      <point x="733" y="52"/>
      <point x="738" y="132"/>
      <point x="758" y="251" type="curve" smooth="yes"/>
      <point x="850" y="768" type="line" smooth="yes"/>
      <point x="883" y="980"/>
      <point x="758" y="1102"/>
      <point x="525" y="1102" type="curve" smooth="yes"/>
      <point x="363" y="1102"/>
      <point x="214" y="1029"/>
      <point x="131" y="922" type="curve" smooth="yes"/>
      <point x="100" y="881"/>
      <point x="77" y="835"/>
      <point x="69" y="786" type="curve"/>
      <point x="122" y="784" type="line"/>
      <point x="149" y="933"/>
      <point x="318" y="1048"/>
      <point x="515" y="1048" type="curve" smooth="yes"/>
      <point x="727" y="1048"/>
      <point x="827" y="943"/>
      <point x="795" y="762" type="curve" smooth="yes"/>
      <point x="767" y="604" type="line"/>
      <point x="500" y="604" type="line" smooth="yes"/>
      <point x="202" y="601"/>
      <point x="-15" y="473"/>
      <point x="-50" y="274" type="curve" smooth="yes"/>
      <point x="-81" y="99"/>
      <point x="31" y="-20"/>
    </contour>
    <contour>
      <point x="240" y="33" type="curve" smooth="yes"/>
      <point x="79" y="33"/>
      <point x="-20" y="138"/>
      <point x="3" y="270" type="curve" smooth="yes"/>
      <point x="39" y="475"/>
      <point x="295" y="549"/>
      <point x="507" y="549" type="curve" smooth="yes"/>
      <point x="757" y="549" type="line"/>
      <point x="712" y="292" type="line"/>
      <point x="609" y="128"/>
      <point x="443" y="33"/>
    </contour>
  </outline>
</glyph>
<glyph name="c" format="2">
  <advance width="1039"/>
  <unicode hex="0063"/>
  <note>
uni0063
</note>
  <outline>
    <contour>
      <point x="345" y="-20" type="curve" smooth="yes"/>
      <point x="567" y="-20"/>
      <point x="759" y="119"/>
      <point x="807" y="328" type="curve"/>
      <point x="753" y="328" type="line"/>
      <point x="709" y="144"/>
      <point x="550" y="34"/>
      <point x="354" y="34" type="curve" smooth="yes"/>
      <point x="113" y="34"/>
      <point x="-1" y="217"/>
      <point x="52" y="520" type="curve" smooth="yes"/>
      <point x="58" y="555" type="line" smooth="yes"/>
      <point x="113" y="864"/>
      <point x="290" y="1048"/>
      <point x="531" y="1048" type="curve" smooth="yes"/>
      <point x="732" y="1048"/>
      <point x="848" y="920"/>
      <point x="823" y="725" type="curve"/>
      <point x="877" y="725" type="line"/>
      <point x="908" y="953"/>
      <point x="770" y="1102"/>
      <point x="541" y="1102" type="curve" smooth="yes"/>
      <point x="273" y="1102"/>
      <point x="63" y="890"/>
      <point x="5" y="562" type="curve" smooth="yes"/>
      <point x="-1" y="526" type="line" smooth="yes"/>
      <point x="-60" y="190"/>
      <point x="74" y="-20"/>
    </contour>
  </outline>
</glyph>
<glyph name="i" format="2">
  <advance width="422"/>
  <unicode hex="0069"/>
  <note>
uni0069
</note>
  <outline>
    <contour>
      <point x="-6" y="0" type="line"/>
      <point x="48" y="0" type="line"/>
      <point x="239" y="1082" type="line"/>
      <point x="185" y="1082" type="line"/>
    </contour>
    <contour>
      <point x="262" y="1365" type="curve" smooth="yes"/>
      <point x="293" y="1365"/>
      <point x="322" y="1389"/>
      <point x="328" y="1420" type="curve" smooth="yes"/>
      <point x="333" y="1451"/>
      <point x="312" y="1476"/>
      <point x="281" y="1476" type="curve" smooth="yes"/>
      <point x="251" y="1476"/>
      <point x="222" y="1451"/>
      <point x="217" y="1420" type="curve" smooth="yes"/>
      <point x="211" y="1389"/>
      <point x="231" y="1365"/>
    </contour>
  </outline>
</glyph>
<glyph name="exclamdown" format="2">
  <advance width="406"/>
  <unicode hex="00A1"/>
  <note>
uni00A1
</note>
  <outline>
    <contour>
      <point x="-75" y="-359" type="line"/>
      <point x="-21" y="-359" type="line"/>
      <point x="165" y="696" type="line"/>
      <point x="111" y="696" type="line"/>
    </contour>
    <contour>
      <point x="182" y="992" type="curve" smooth="yes"/>
      <point x="213" y="992"/>
      <point x="242" y="1017"/>
      <point x="247" y="1048" type="curve" smooth="yes"/>
      <point x="252" y="1079"/>
      <point x="232" y="1103"/>
      <point x="202" y="1103" type="curve" smooth="yes"/>
      <point x="171" y="1103"/>
      <point x="141" y="1079"/>
      <point x="136" y="1048" type="curve" smooth="yes"/>
      <point x="131" y="1017"/>
      <point x="151" y="992"/>
    </contour>
  </outline>
</glyph>
<glyph name="cent" format="2">
  <advance width="1110"/>
  <unicode hex="00A2"/>
  <note>
uni00A2
</note>
  <outline>
    <contour>
      <point x="315" y="-245" type="line"/>
      <point x="370" y="-245" type="line"/>
      <point x="410" y="-19" type="line"/>
      <point x="618" y="-8"/>
      <point x="798" y="128"/>
      <point x="844" y="328" type="curve"/>
      <point x="790" y="328" type="line"/>
      <point x="746" y="144"/>
      <point x="587" y="34"/>
      <point x="391" y="34" type="curve" smooth="yes"/>
      <point x="150" y="34"/>
      <point x="36" y="217"/>
      <point x="89" y="520" type="curve" smooth="yes"/>
      <point x="95" y="555" type="line" smooth="yes"/>
      <point x="150" y="864"/>
      <point x="327" y="1048"/>
      <point x="568" y="1048" type="curve" smooth="yes"/>
      <point x="769" y="1048"/>
      <point x="885" y="920"/>
      <point x="860" y="725" type="curve"/>
      <point x="914" y="725" type="line"/>
      <point x="943" y="942"/>
      <point x="822" y="1086"/>
      <point x="607" y="1101" type="curve"/>
      <point x="646" y="1318" type="line"/>
      <point x="591" y="1318" type="line"/>
      <point x="552" y="1101" type="line"/>
      <point x="295" y="1088"/>
      <point x="99" y="882"/>
      <point x="42" y="562" type="curve" smooth="yes"/>
      <point x="36" y="526" type="line" smooth="yes"/>
      <point x="-22" y="199"/>
      <point x="103" y="-6"/>
      <point x="355" y="-19" type="curve"/>
    </contour>
  </outline>
</glyph>
<glyph name="twosuperior" format="2">
  <advance width="728"/>
  <unicode hex="00B2"/>
  <note>
uni00B2
</note>
  <outline>
    <contour>
      <point x="34" y="664" type="line"/>
      <point x="577" y="664" type="line"/>
      <point x="586" y="713" type="line"/>
      <point x="110" y="713" type="line"/>
      <point x="483" y="1031" type="line" smooth="yes"/>
      <point x="573" y="1113"/>
      <point x="623" y="1185"/>
      <point x="634" y="1248" type="curve" smooth="yes"/>
      <point x="657" y="1379"/>
      <point x="578" y="1464"/>
      <point x="423" y="1464" type="curve" smooth="yes"/>
      <point x="265" y="1464"/>
      <point x="136" y="1363"/>
      <point x="111" y="1226" type="curve"/>
      <point x="165" y="1226" type="line"/>
      <point x="185" y="1339"/>
      <point x="279" y="1415"/>
      <point x="415" y="1415" type="curve" smooth="yes"/>
      <point x="544" y="1415"/>
      <point x="598" y="1350"/>
      <point x="580" y="1247" type="curve" smooth="yes"/>
      <point x="568" y="1179"/>
      <point x="508" y="1106"/>
      <point x="384" y="1003" type="curve" smooth="yes"/>
      <point x="42" y="708" type="line"/>
    </contour>
  </outline>
</glyph>
<glyph name="periodcentered" format="2">
  <advance width="472"/>
  <unicode hex="00B7"/>
  <note>
uni00B7
</note>
  <outline>
    <contour>
      <point x="158" y="651" type="curve" smooth="yes"/>
      <point x="189" y="651"/>
      <point x="218" y="675"/>
      <point x="224" y="706" type="curve" smooth="yes"/>
      <point x="229" y="737"/>
      <point x="208" y="762"/>
      <point x="178" y="762" type="curve" smooth="yes"/>
      <point x="147" y="762"/>
      <point x="118" y="737"/>
      <point x="113" y="706" type="curve" smooth="yes"/>
      <point x="107" y="675"/>
      <point x="127" y="651"/>
    </contour>
  </outline>
</glyph>
<glyph name="oe" format="2">
  <advance width="1924"/>
  <unicode hex="0153"/>
  <note>
uni0153
</note>
  <outline>
    <contour>
      <point x="373" y="-20" type="curve" smooth="yes"/>
      <point x="585" y="-20"/>
      <point x="777" y="108"/>
      <point x="881" y="331" type="curve"/>
      <point x="905" y="122"/>
      <point x="1054" y="-20"/>
      <point x="1250" y="-20" type="curve" smooth="yes"/>
      <point x="1412" y="-20"/>
      <point x="1544" y="28"/>
      <point x="1646" y="123" type="curve"/>
      <point x="1624" y="165" type="line"/>
      <point x="1535" y="78"/>
      <point x="1413" y="34"/>
      <point x="1259" y="34" type="curve" smooth="yes"/>
      <point x="985" y="34"/>
      <point x="898" y="255"/>
      <point x="955" y="577" type="curve"/>
      <point x="1766" y="577" type="line"/>
      <point x="1780" y="656" type="line" smooth="yes"/>
      <point x="1828" y="928"/>
      <point x="1691" y="1102"/>
      <point x="1445" y="1102" type="curve" smooth="yes"/>
      <point x="1245" y="1102"/>
      <point x="1055" y="962"/>
      <point x="956" y="747" type="curve"/>
      <point x="932" y="967"/>
      <point x="790" y="1102"/>
      <point x="569" y="1102" type="curve" smooth="yes"/>
      <point x="386" y="1102"/>
      <point x="217" y="1005"/>
      <point x="109" y="841" type="curve" smooth="yes"/>
      <point x="55" y="758"/>
      <point x="19" y="665"/>
      <point x="0" y="562" type="curve" smooth="yes"/>
      <point x="-8" y="514" type="line" smooth="yes"/>
      <point x="-74" y="140"/>
      <point x="217" y="-20"/>
    </contour>
    <contour>
      <point x="382" y="34" type="curve" smooth="yes"/>
      <point x="118" y="34"/>
      <point x="12" y="320"/>
      <point x="47" y="520" type="curve" smooth="yes"/>
      <point x="103" y="837"/>
      <point x="312" y="1048"/>
      <point x="559" y="1048" type="curve" smooth="yes"/>
      <point x="830" y="1048"/>
      <point x="938" y="818"/>
      <point x="888" y="531" type="curve" smooth="yes"/>
      <point x="836" y="239"/>
      <point x="629" y="34"/>
    </contour>
    <contour>
      <point x="967" y="631" type="line"/>
      <point x="1036" y="876"/>
      <point x="1224" y="1048"/>
      <point x="1435" y="1048" type="curve" smooth="yes"/>
      <point x="1644" y="1048"/>
      <point x="1767" y="889"/>
      <point x="1727" y="664" type="curve" smooth="yes"/>
      <point x="1721" y="631" type="line"/>
    </contour>
  </outline>
</glyph>
<glyph name="lowringmod" format="2">
  <advance width="642"/>
  <unicode hex="02F3"/>
  <note>
uni02F3
</note>
  <outline>
    <contour>
      <point x="73" y="-335" type="curve" smooth="yes"/>
      <point x="145" y="-335"/>
      <point x="215" y="-284"/>
      <point x="227" y="-219" type="curve" smooth="yes"/>
      <point x="238" y="-155"/>
      <point x="189" y="-99"/>
      <point x="115" y="-99" type="curve" smooth="yes"/>
      <point x="39" y="-99"/>
      <point x="-29" y="-155"/>
      <point x="-40" y="-219" type="curve" smooth="yes"/>
      <point x="-52" y="-284"/>
      <point x="0" y="-335"/>
    </contour>
    <contour>
      <point x="79" y="-279" type="curve" smooth="yes"/>
      <point x="42" y="-278"/>
      <point x="11" y="-258"/>
      <point x="18" y="-219" type="curve" smooth="yes"/>
      <point x="25" y="-178"/>
      <point x="67" y="-157"/>
      <point x="104" y="-157" type="curve" smooth="yes"/>
      <point x="143" y="-157"/>
      <point x="177" y="-178"/>
      <point x="170" y="-219" type="curve" smooth="yes"/>
      <point x="162" y="-261"/>
      <point x="118" y="-281"/>
    </contour>
  </outline>
</glyph>
<glyph name="dieresistonos" format="2">
  <advance width="928"/>
  <unicode hex="0385"/>
  <note>
uni0385
</note>
  <outline>
    <contour>
      <point x="502" y="1417" type="line"/>
      <point x="561" y="1417" type="line"/>
      <point x="646" y="1657" type="line"/>
      <point x="567" y="1657" type="line"/>
    </contour>
    <contour>
      <point x="299" y="1366" type="curve" smooth="yes"/>
      <point x="330" y="1366"/>
      <point x="359" y="1390"/>
      <point x="365" y="1421" type="curve" smooth="yes"/>
      <point x="370" y="1452"/>
      <point x="349" y="1477"/>
      <point x="319" y="1477" type="curve" smooth="yes"/>
      <point x="288" y="1477"/>
      <point x="259" y="1452"/>
      <point x="254" y="1421" type="curve" smooth="yes"/>
      <point x="248" y="1390"/>
      <point x="268" y="1366"/>
    </contour>
    <contour>
      <point x="744" y="1366" type="curve" smooth="yes"/>
      <point x="775" y="1366"/>
      <point x="804" y="1390"/>
      <point x="810" y="1421" type="curve" smooth="yes"/>
      <point x="815" y="1452"/>
      <point x="794" y="1477"/>
      <point x="764" y="1477" type="curve" smooth="yes"/>
      <point x="733" y="1477"/>
      <point x="704" y="1452"/>
      <point x="699" y="1421" type="curve" smooth="yes"/>
      <point x="693" y="1390"/>
      <point x="713" y="1366"/>
    </contour>
  </outline>
</glyph>
<glyph name="paa-ethiopic" format="2">
  <advance width="762"/>
  <unicode hex="1353"/>
  <anchor x="297" y="42" name="haa"/>
  <anchor x="158" y="-11" name="haa.acute"/>
  <anchor x="395" y="1339" name="hat"/>
  <anchor x="388" y="1207" name="he.acute.top"/>
  <anchor x="208" y="0" name="hee"/>
  <anchor x="230" y="50" name="hi"/>
  <anchor x="593" y="1275" name="ho.ring"/>
  <anchor x="328" y="669" name="hu"/>
  <anchor x="169" y="20" name="hwa"/>
  <anchor x="322" y="1082" name="neck"/>
  <outline>
    <contour>
      <point x="-93" y="0" type="line"/>
      <point x="164" y="0" type="line"/>
      <point x="172" y="45" type="line"/>
      <point x="-85" y="45" type="line"/>
    </contour>
    <component base="pa.base" xOffset="27"/>
  </outline>
</glyph>
<glyph name="two-ethiopic" format="2">
  <advance width="1400"/>
  <unicode hex="136A"/>
  <outline>
    <contour>
      <point x="581" y="-20" type="curve" smooth="yes"/>
      <point x="842" y="-20"/>
      <point x="1043" y="138"/>
      <point x="1086" y="386" type="curve" smooth="yes"/>
      <point x="1120" y="578"/>
      <point x="1028" y="701"/>
      <point x="846" y="745" type="curve"/>
      <point x="1021" y="796"/>
      <point x="1150" y="926"/>
      <point x="1177" y="1081" type="curve" smooth="yes"/>
      <point x="1220" y="1324"/>
      <point x="1087" y="1476"/>
      <point x="835" y="1476" type="curve" smooth="yes"/>
      <point x="463" y="1473"/>
      <point x="355" y="1165"/>
      <point x="335" y="1078" type="curve" smooth="yes"/>
      <point x="186" y="405" type="line" smooth="yes"/>
      <point x="127" y="140"/>
      <point x="330" y="-20"/>
    </contour>
    <contour>
      <point x="590" y="34" type="curve" smooth="yes"/>
      <point x="350" y="34"/>
      <point x="193" y="193"/>
      <point x="240" y="404" type="curve" smooth="yes"/>
      <point x="389" y="1074" type="line" smooth="yes"/>
      <point x="435" y="1280"/>
      <point x="607" y="1422"/>
      <point x="826" y="1422" type="curve" smooth="yes"/>
      <point x="1050" y="1422"/>
      <point x="1160" y="1292"/>
      <point x="1124" y="1085" type="curve" smooth="yes"/>
      <point x="1092" y="904"/>
      <point x="915" y="770"/>
      <point x="686" y="770" type="curve" smooth="yes"/>
      <point x="564" y="770" type="line"/>
      <point x="554" y="714" type="line"/>
      <point x="668" y="714" type="line" smooth="yes"/>
      <point x="944" y="714"/>
      <point x="1069" y="597"/>
      <point x="1032" y="382" type="curve" smooth="yes"/>
      <point x="993" y="165"/>
      <point x="829" y="34"/>
    </contour>
    <component base="_num.bar" xOffset="101"/>
  </outline>
</glyph>
<glyph name="three-ethiopic" format="2">
  <advance width="1150"/>
  <unicode hex="136B"/>
  <outline>
    <contour>
      <point x="-48" y="0" type="line"/>
      <point x="14" y="0" type="line"/>
      <point x="261" y="1402" type="line"/>
      <point x="1129" y="1402" type="line"/>
      <point x="1139" y="1456" type="line"/>
      <point x="209" y="1456" type="line"/>
    </contour>
    <component base="_num.bar"/>
  </outline>
</glyph>
<glyph name="nine-ethiopic" format="2">
  <advance width="1456"/>
  <unicode hex="1371"/>
  <outline>
    <contour>
      <point x="493" y="-20" type="curve" smooth="yes"/>
      <point x="767" y="-20"/>
      <point x="966" y="203"/>
      <point x="1035" y="594" type="curve" smooth="yes"/>
      <point x="1082" y="858" type="line" smooth="yes"/>
      <point x="1123" y="1089"/>
      <point x="1098" y="1262"/>
      <point x="1014" y="1366" type="curve"/>
      <point x="960" y="1337" type="line"/>
      <point x="1025.277" y="1264.645"/>
      <point x="1054.06" y="1148.375"/>
      <point x="1044.405" y="995" type="curve"/>
      <point x="295.894" y="995" type="line"/>
      <point x="350.275" y="1181.134"/>
      <point x="440.631" y="1312.037"/>
      <point x="560" y="1377" type="curve"/>
      <point x="524" y="1414" type="line"/>
      <point x="369" y="1321"/>
      <point x="258" y="1130"/>
      <point x="211" y="862" type="curve" smooth="yes"/>
      <point x="165" y="598" type="line" smooth="yes"/>
      <point x="96" y="206"/>
      <point x="219" y="-20"/>
    </contour>
    <contour>
      <point x="502" y="34" type="curve" smooth="yes"/>
      <point x="261" y="34"/>
      <point x="156" y="244"/>
      <point x="218" y="596" type="curve" smooth="yes"/>
      <point x="281.505" y="941" type="line"/>
      <point x="1039.589" y="941" type="line"/>
      <point x="982" y="601" type="line" smooth="yes"/>
      <point x="919" y="242"/>
      <point x="745" y="34"/>
    </contour>
    <component base="_num.bar" xOffset="125"/>
  </outline>
</glyph>
<glyph name="hundred-ethiopic" format="2">
  <advance width="1450"/>
  <unicode hex="137B"/>
  <outline>
    <contour>
      <point x="49" y="-3" type="line" name="❌"/>
      <point x="104" y="-3" type="line" name="❌"/>
      <point x="229" y="710" type="line"/>
      <point x="282" y="573"/>
      <point x="424" y="486"/>
      <point x="599" y="486" type="curve" smooth="yes"/>
      <point x="855" y="486"/>
      <point x="1053" y="676"/>
      <point x="1104" y="963" type="curve" smooth="yes"/>
      <point x="1150" y="1226"/>
      <point x="1039" y="1463"/>
      <point x="781" y="1463" type="curve" smooth="yes"/>
      <point x="643" y="1463"/>
      <point x="295" y="1396"/>
      <point x="219" y="962" type="curve" smooth="yes"/>
    </contour>
    <contour>
      <point x="601" y="540" type="curve" smooth="yes"/>
      <point x="414" y="540"/>
      <point x="260" y="661"/>
      <point x="248" y="822" type="curve"/>
      <point x="271" y="950" type="line" smooth="yes"/>
      <point x="320" y="1225"/>
      <point x="524" y="1410"/>
      <point x="772" y="1410" type="curve" smooth="yes"/>
      <point x="979" y="1410"/>
      <point x="1090" y="1188"/>
      <point x="1050" y="963" type="curve" smooth="yes"/>
      <point x="1004" y="704"/>
      <point x="833" y="540"/>
    </contour>
    <component base="_num.bar" xOffset="132" yOffset="17"/>
  </outline>
</glyph>
<glyph name="quotesinglbase" format="2">
  <advance width="300"/>
  <unicode hex="201A"/>
  <note>
uni201A
</note>
  <outline>
    <contour>
      <point x="-139" y="-182" type="line"/>
      <point x="-58" y="-109"/>
      <point x="-7" y="-20"/>
      <point x="14" y="86" type="curve" smooth="yes"/>
      <point x="39" y="228" type="line"/>
      <point x="-16" y="228" type="line"/>
      <point x="-44" y="65" type="line"/>
      <point x="-62" y="-9"/>
      <point x="-104" y="-81"/>
      <point x="-170" y="-150" type="curve"/>
    </contour>
  </outline>
</glyph>
<glyph name="bullet" format="2">
  <advance width="635"/>
  <unicode hex="2022"/>
  <note>
uni2022
</note>
  <outline>
    <contour>
      <point x="227" y="545" type="curve" smooth="yes"/>
      <point x="325" y="545"/>
      <point x="405" y="608"/>
      <point x="422" y="703" type="curve" smooth="yes"/>
      <point x="427" y="730" type="line" smooth="yes"/>
      <point x="445" y="830"/>
      <point x="388" y="893"/>
      <point x="288" y="893" type="curve" smooth="yes"/>
      <point x="188" y="893"/>
      <point x="110" y="828"/>
      <point x="93" y="733" type="curve" smooth="yes"/>
      <point x="88" y="701" type="line" smooth="yes"/>
      <point x="72" y="606"/>
      <point x="131" y="545"/>
    </contour>
  </outline>
</glyph>
<glyph name="product" format="2">
  <advance width="1270"/>
  <unicode hex="220F"/>
  <note>
uni220F
</note>
  <outline>
    <contour>
      <point x="-59" y="-272" type="line"/>
      <point x="-5" y="-272" type="line"/>
      <point x="290" y="1402" type="line"/>
      <point x="1091" y="1402" type="line"/>
      <point x="796" y="-272" type="line"/>
      <point x="850" y="-272" type="line"/>
      <point x="1155" y="1456" type="line"/>
      <point x="246" y="1456" type="line"/>
    </contour>
  </outline>
</glyph>
<glyph name="divisionslash" format="2">
  <advance width="844"/>
  <unicode hex="2215"/>
  <note>
uni002F
</note>
  <outline>
    <contour>
      <point x="-171" y="-125" type="line"/>
      <point x="-112" y="-125" type="line"/>
      <point x="775" y="1456" type="line"/>
      <point x="716" y="1456" type="line"/>
    </contour>
  </outline>
</glyph>
<glyph name="infinity" format="2">
  <advance width="2223"/>
  <unicode hex="221E"/>
  <note>
uni221E
</note>
  <outline>
    <contour>
      <point x="401" y="-21" type="curve" smooth="yes"/>
      <point x="619" y="-21"/>
      <point x="824" y="143"/>
      <point x="993" y="458" type="curve"/>
      <point x="1047" y="150"/>
      <point x="1199" y="-21"/>
      <point x="1419" y="-21" type="curve" smooth="yes"/>
      <point x="1592" y="-21"/>
      <point x="1754" y="76"/>
      <point x="1861" y="244" type="curve" smooth="yes"/>
      <point x="1915" y="327"/>
      <point x="1950" y="418"/>
      <point x="1967" y="517" type="curve" smooth="yes"/>
      <point x="2005" y="729"/>
      <point x="1968" y="894"/>
      <point x="1877" y="994" type="curve" smooth="yes"/>
      <point x="1815" y="1064"/>
      <point x="1727" y="1102"/>
      <point x="1619" y="1102" type="curve" smooth="yes"/>
      <point x="1399" y="1102"/>
      <point x="1182" y="927"/>
      <point x="1022" y="623" type="curve"/>
      <point x="969" y="928"/>
      <point x="815" y="1102"/>
      <point x="597" y="1102" type="curve" smooth="yes"/>
      <point x="423" y="1102"/>
      <point x="262" y="1005"/>
      <point x="155" y="838" type="curve" smooth="yes"/>
      <point x="102" y="755"/>
      <point x="66" y="664"/>
      <point x="49" y="565" type="curve" smooth="yes"/>
      <point x="15" y="372"/>
      <point x="43" y="218"/>
      <point x="116" y="116" type="curve" smooth="yes"/>
      <point x="179" y="28"/>
      <point x="278" y="-21"/>
    </contour>
    <contour>
      <point x="410" y="33" type="curve" smooth="yes"/>
      <point x="140" y="33"/>
      <point x="51" y="272"/>
      <point x="100" y="550" type="curve" smooth="yes"/>
      <point x="152" y="842"/>
      <point x="354" y="1048"/>
      <point x="587" y="1048" type="curve" smooth="yes"/>
      <point x="796" y="1048"/>
      <point x="936" y="862"/>
      <point x="977" y="562" type="curve"/>
      <point x="970" y="521" type="line"/>
      <point x="822" y="220"/>
      <point x="615" y="33"/>
    </contour>
    <contour>
      <point x="1428" y="33" type="curve" smooth="yes"/>
      <point x="1223" y="33"/>
      <point x="1082" y="213"/>
      <point x="1039" y="520" type="curve"/>
      <point x="1046" y="562" type="line"/>
      <point x="1195" y="866"/>
      <point x="1400" y="1048"/>
      <point x="1609" y="1048" type="curve" smooth="yes"/>
      <point x="1863" y="1048"/>
      <point x="1965" y="809"/>
      <point x="1916" y="530" type="curve" smooth="yes"/>
      <point x="1865" y="241"/>
      <point x="1665" y="33"/>
    </contour>
  </outline>
</glyph>
<glyph name="notequal" format="2">
  <advance width="1142"/>
  <unicode hex="2260"/>
  <note>
uni2260
</note>
  <outline>
    <contour>
      <point x="128" y="152" type="line"/>
      <point x="339" y="436" type="line"/>
      <point x="867" y="436" type="line"/>
      <point x="877" y="490" type="line"/>
      <point x="379" y="490" type="line"/>
      <point x="641" y="843" type="line"/>
      <point x="939" y="843" type="line"/>
      <point x="948" y="897" type="line"/>
      <point x="681" y="897" type="line"/>
      <point x="874" y="1156" type="line"/>
      <point x="831" y="1180" type="line"/>
      <point x="620" y="897" type="line"/>
      <point x="114" y="897" type="line"/>
      <point x="105" y="843" type="line"/>
      <point x="581" y="843" type="line"/>
      <point x="319" y="490" type="line"/>
      <point x="43" y="490" type="line"/>
      <point x="33" y="436" type="line"/>
      <point x="278" y="436" type="line"/>
      <point x="85" y="176" type="line"/>
    </contour>
  </outline>
</glyph>
<glyph name="_smart.cha.caps" format="2">
  <anchor x="-190" y="34" name="_cha.caps"/>
  <outline>
    <contour>
      <point x="-575" y="5" type="curve" smooth="yes"/>
      <point x="-544" y="5"/>
      <point x="-515" y="29"/>
      <point x="-509" y="60" type="curve" smooth="yes"/>
      <point x="-504" y="91"/>
      <point x="-524" y="116"/>
      <point x="-555" y="116" type="curve" smooth="yes"/>
      <point x="-586" y="116"/>
      <point x="-615" y="91"/>
      <point x="-620" y="60" type="curve" smooth="yes"/>
      <point x="-626" y="29"/>
      <point x="-606" y="5"/>
    </contour>
    <contour>
      <point x="447" y="5" type="curve" smooth="yes"/>
      <point x="478" y="5"/>
      <point x="507" y="29"/>
      <point x="513" y="60" type="curve" smooth="yes"/>
      <point x="518" y="91"/>
      <point x="498" y="116"/>
      <point x="467" y="116" type="curve" smooth="yes"/>
      <point x="436" y="116"/>
      <point x="407" y="91"/>
      <point x="402" y="60" type="curve" smooth="yes"/>
      <point x="396" y="29"/>
      <point x="416" y="5"/>
    </contour>
  </outline>
</glyph>
<glyph name="_smart.haa" format="2">
  <anchor x="-123" y="338" name="_haa"/>
  <outline>
    <contour>
      <point x="-216" y="-18" type="line"/>
      <point x="-159" y="-18" type="line"/>
      <point x="-97" y="336" type="line"/>
      <point x="-154" y="336" type="line"/>
    </contour>
  </outline>
</glyph>
<glyph name="_smart.hi" format="2">
  <anchor x="-167" y="127" name="_hi"/>
  <outline>
    <contour>
      <point x="-122" y="72" type="curve" smooth="yes"/>
      <point x="-91" y="72"/>
      <point x="-62" y="96"/>
      <point x="-56" y="127" type="curve" smooth="yes"/>
      <point x="-51" y="158"/>
      <point x="-72" y="183"/>
      <point x="-103" y="183" type="curve" smooth="yes"/>
      <point x="-134" y="183"/>
      <point x="-162" y="158"/>
      <point x="-167" y="127" type="curve" smooth="yes"/>
      <point x="-173" y="96"/>
      <point x="-153" y="72"/>
    </contour>
  </outline>
</glyph>
<glyph name="_smart.hu" format="2">
  <anchor x="-24" y="967" name="_hu"/>
  <outline>
    <contour>
      <point x="23" y="922" type="curve" smooth="yes"/>
      <point x="54" y="922"/>
      <point x="83" y="946"/>
      <point x="88" y="977" type="curve" smooth="yes"/>
      <point x="94" y="1008"/>
      <point x="73" y="1033"/>
      <point x="42" y="1033" type="curve" smooth="yes"/>
      <point x="11" y="1033"/>
      <point x="-17" y="1008"/>
      <point x="-23" y="977" type="curve" smooth="yes"/>
      <point x="-28" y="946"/>
      <point x="-8" y="922"/>
    </contour>
  </outline>
</glyph>
<glyph name="_smart.nose.extend" format="2">
  <anchor x="29" y="1053" name="_nose.extend"/>
  <outline>
    <contour>
      <point x="6" y="1052" type="line"/>
      <point x="-34" y="844" type="line"/>
      <point x="8" y="844" type="line"/>
      <point x="48" y="1052" type="line"/>
    </contour>
  </outline>
</glyph>
<glyph name="_smart.raa" format="2">
  <anchor x="-507" y="220" name="_raa"/>
  <outline>
    <contour>
      <point x="-541" y="220" type="line"/>
      <point x="-481" y="220" type="line"/>
      <point x="-239" y="486" type="line"/>
      <point x="-305" y="486" type="line"/>
    </contour>
  </outline>
</glyph>
<glyph name="_smart.tsa.belt" format="2">
  <anchor x="-92" y="602" name="_tsa.belt"/>
  <outline>
    <contour>
      <point x="-523" y="501" type="line"/>
      <point x="262" y="501" type="line"/>
      <point x="271" y="555" type="line"/>
      <point x="-514" y="555" type="line"/>
    </contour>
  </outline>
</glyph>
<glyph name="_smart.ye" format="2">
  <advance width="911"/>
  <anchor x="334.132" y="44" name="_ye"/>
  <outline>
    <contour>
      <point x="140" y="-153" type="curve"/>
      <point x="195" y="-153" type="line"/>
      <point x="195" y="-77"/>
      <point x="241" y="-28"/>
      <point x="316" y="-28" type="curve" smooth="yes"/>
      <point x="427" y="-28"/>
      <point x="575" y="-23"/>
      <point x="713" y="-23" type="curve" smooth="yes"/>
      <point x="943" y="-23"/>
      <point x="959" y="225"/>
      <point x="959" y="334" type="curve"/>
      <point x="904" y="334" type="line"/>
      <point x="904" y="255"/>
      <point x="915" y="32"/>
      <point x="713" y="32" type="curve" smooth="yes"/>
      <point x="607" y="32"/>
      <point x="450" y="26"/>
      <point x="316" y="26" type="curve" smooth="yes"/>
      <point x="215" y="26"/>
      <point x="140" y="-46"/>
    </contour>
  </outline>
</glyph>
<glyph name="ba.base" format="2">
  <advance width="1241"/>
  <anchor x="255" y="721" name="aGl"/>
  <anchor x="29.454" y="1465" name="eGl"/>
  <anchor x="798" y="-8" name="haa"/>
  <anchor x="801" y="1382" name="hat"/>
  <anchor x="318" y="1232" name="hat.left"/>
  <anchor x="623" y="1204" name="he.acute.top"/>
  <anchor x="257" y="560" name="he.left.inner"/>
  <anchor x="113" y="634" name="he.left.outer"/>
  <anchor x="703" y="80" name="hee"/>
  <anchor x="894" y="60" name="hi"/>
  <anchor x="71" y="-24" name="ho"/>
  <anchor x="976" y="673" name="hu"/>
  <anchor x="805" y="43" name="hwa"/>
  <anchor x="594" y="1040" name="ka"/>
  <anchor x="650" y="1114" name="neck"/>
  <outline>
    <contour>
      <point x="41" y="0" type="line"/>
      <point x="95" y="0" type="line"/>
      <point x="221" y="716" type="line" smooth="yes"/>
      <point x="247" y="862"/>
      <point x="315" y="1061"/>
      <point x="610" y="1061" type="curve" smooth="yes"/>
      <point x="922" y="1061"/>
      <point x="922" y="872"/>
      <point x="895" y="716" type="curve" smooth="yes"/>
      <point x="769" y="0" type="line"/>
      <point x="824" y="0" type="line"/>
      <point x="950" y="715" type="line" smooth="yes"/>
      <point x="995" y="973"/>
      <point x="868" y="1111"/>
      <point x="613" y="1111" type="curve" smooth="yes"/>
      <point x="345" y="1111"/>
      <point x="210" y="957"/>
      <point x="173" y="748" type="curve" smooth="yes"/>
    </contour>
  </outline>
</glyph>
<glyph name="fi-ethiopic.liga" format="2">
  <advance width="1057"/>
  <anchor x="580" y="91" name="fa"/>
  <anchor x="424" y="3" name="haa"/>
  <anchor x="412" y="-4" name="haa.acute"/>
  <anchor x="352" y="1360" name="hat.left"/>
  <anchor x="803" y="20" name="hee"/>
  <outline>
    <contour>
      <point x="832" y="10" type="line"/>
      <point x="690" y="276" type="line"/>
      <point x="624" y="276" type="line"/>
      <point x="772" y="10" type="line"/>
    </contour>
    <component base="ra.base.cap"/>
    <component base="_smart.fa" xOffset="232" yOffset="37"/>
  </outline>
</glyph>
<glyph name="ga.base.cap" format="2">
  <advance width="955"/>
  <anchor x="492" y="8" name="haa.acute"/>
  <anchor x="352" y="1665" name="hat.caps"/>
  <anchor x="114" y="1305" name="he.ring.uniq"/>
  <anchor x="466" y="11" name="hee"/>
  <anchor x="651" y="65" name="hi"/>
  <anchor x="446" y="1464" name="ho"/>
  <anchor x="468" y="1315" name="ho.ring"/>
  <anchor x="760" y="955" name="hu"/>
  <anchor x="412" y="1463" name="neck.caps"/>
  <anchor x="147" y="1452" name="neck.left.caps"/>
  <anchor x="72" y="1625" name="nose"/>
  <outline>
    <contour>
      <point x="510" y="0" type="line"/>
      <point x="565" y="0" type="line"/>
      <point x="818" y="1436" type="line" smooth="yes"/>
      <point x="820" y="1447"/>
      <point x="813" y="1456"/>
      <point x="802" y="1456" type="curve" smooth="yes"/>
      <point x="120" y="1456" type="line"/>
      <point x="110" y="1402" type="line"/>
      <point x="757" y="1402" type="line"/>
    </contour>
  </outline>
</glyph>
<glyph name="ra.base" format="2">
  <advance width="1156"/>
  <anchor x="612" y="70" name="fa"/>
  <anchor x="500" y="-93" name="haa"/>
  <anchor x="535" y="-91" name="haa.acute"/>
  <anchor x="499" y="1051" name="hat"/>
  <anchor x="361.25" y="1041" name="hat.left"/>
  <anchor x="885" y="600" name="hee"/>
  <anchor x="885" y="985" name="ho.ring"/>
  <anchor x="439" y="-20" name="hwa"/>
  <anchor x="999" y="305" name="ra"/>
  <anchor x="679" y="285" name="raa"/>
  <anchor x="869" y="294" name="ri"/>
  <outline>
    <contour>
      <point x="432" y="-20" type="curve" smooth="yes"/>
      <point x="634" y="-20"/>
      <point x="866" y="155"/>
      <point x="924" y="276" type="curve"/>
      <point x="863" y="276" type="line"/>
      <point x="828" y="188"/>
      <point x="613" y="34"/>
      <point x="421" y="34" type="curve" smooth="yes"/>
      <point x="150" y="34"/>
      <point x="155" y="270"/>
      <point x="199" y="517" type="curve" smooth="yes"/>
      <point x="299" y="1082" type="line"/>
      <point x="244" y="1082" type="line"/>
      <point x="146" y="524" type="line" smooth="yes"/>
      <point x="87" y="187"/>
      <point x="139" y="-20"/>
    </contour>
  </outline>
</glyph>
<glyph name="sa.base.cap" format="2">
  <advance width="1855"/>
  <anchor x="1175" y="-30" name="haa"/>
  <anchor x="480" y="12" name="he.acute.bottom"/>
  <anchor x="1105" y="20" name="hee"/>
  <anchor x="378" y="18" name="hha.acute"/>
  <anchor x="1200" y="-288" name="hi"/>
  <anchor x="289" y="11" name="ho"/>
  <anchor x="1683" y="956" name="hu"/>
  <anchor x="1191" y="9" name="hwa"/>
  <outline>
    <contour>
      <point x="263" y="0" type="line"/>
      <point x="324" y="0" type="line"/>
      <point x="978" y="1368" type="line"/>
      <point x="1149" y="0" type="line"/>
      <point x="1210" y="0" type="line"/>
      <point x="1859" y="1456" type="line"/>
      <point x="1800" y="1456" type="line"/>
      <point x="1191" y="90" type="line"/>
      <point x="1025" y="1456" type="line"/>
      <point x="965" y="1456" type="line"/>
      <point x="314" y="90" type="line"/>
      <point x="187" y="1456" type="line"/>
      <point x="127" y="1456" type="line"/>
    </contour>
  </outline>
</glyph>
<glyph name="wa.base" format="2">
  <advance width="1529"/>
  <anchor x="592" y="0" name="haa"/>
  <anchor x="543" y="-90" name="haa.acute"/>
  <anchor x="891" y="1363" name="hat"/>
  <anchor x="790" y="1232" name="he.acute.top"/>
  <anchor x="638" y="0" name="hee"/>
  <anchor x="634" y="-289" name="hi"/>
  <anchor x="993" y="1340" name="ho.ring"/>
  <anchor x="1327" y="743" name="hu"/>
  <anchor x="573" y="0" name="hwa"/>
  <anchor x="739" y="1102" name="neck"/>
  <outline>
    <contour>
      <point x="394" y="-20" type="curve" smooth="yes"/>
      <point x="436" y="-20"/>
      <point x="475" y="-8"/>
      <point x="572" y="37" type="curve"/>
      <point x="602" y="38" type="line"/>
      <point x="639" y="7"/>
      <point x="668" y="-20"/>
      <point x="747" y="-20" type="curve" smooth="yes"/>
      <point x="998" y="-20"/>
      <point x="1190" y="191"/>
      <point x="1251" y="538" type="curve" smooth="yes"/>
      <point x="1314" y="897"/>
      <point x="1200" y="1102"/>
      <point x="943" y="1102" type="curve" smooth="yes"/>
      <point x="893" y="1102"/>
      <point x="845" y="1095"/>
      <point x="802" y="1082" type="curve"/>
      <point x="735" y="1081" type="line"/>
      <point x="691" y="1096"/>
      <point x="645" y="1102"/>
      <point x="594" y="1102" type="curve" smooth="yes"/>
      <point x="341" y="1102"/>
      <point x="149" y="897"/>
      <point x="89" y="552" type="curve" smooth="yes"/>
      <point x="25" y="191"/>
      <point x="140" y="-20"/>
    </contour>
    <contour>
      <point x="402" y="34" type="curve" smooth="yes"/>
      <point x="179" y="34"/>
      <point x="87" y="224"/>
      <point x="141" y="531" type="curve" smooth="yes"/>
      <point x="201" y="871"/>
      <point x="362" y="1048"/>
      <point x="583" y="1048" type="curve" smooth="yes"/>
      <point x="637" y="1048"/>
      <point x="685" y="1040"/>
      <point x="725" y="1024" type="curve"/>
      <point x="557" y="70" type="line"/>
      <point x="499" y="46"/>
      <point x="447" y="34"/>
    </contour>
    <contour>
      <point x="757" y="34" type="curve" smooth="yes"/>
      <point x="715" y="34"/>
      <point x="675" y="40"/>
      <point x="626" y="65" type="curve"/>
      <point x="795" y="1028" type="line"/>
      <point x="832" y="1039"/>
      <point x="867" y="1045"/>
      <point x="899" y="1048" type="curve" smooth="yes"/>
      <point x="1160" y="1071"/>
      <point x="1249" y="842"/>
      <point x="1194" y="531" type="curve" smooth="yes"/>
      <point x="1140" y="224"/>
      <point x="988" y="34"/>
    </contour>
  </outline>
</glyph>
<glyph name="ye-ethiopic.liga" format="2">
  <advance width="1335"/>
  <anchor x="187" y="10" name="da.caps"/>
  <anchor x="968" y="14" name="haa"/>
  <anchor x="831" y="1682" name="hat.caps"/>
  <anchor x="1379" y="1009" name="he"/>
  <anchor x="403" y="1526" name="he.left.outer"/>
  <anchor x="865" y="102" name="hee"/>
  <anchor x="1041" y="8" name="hi"/>
  <anchor x="136" y="-25" name="ho"/>
  <anchor x="949" y="339" name="hu"/>
  <anchor x="971" y="-2" name="hwa"/>
  <anchor x="785" y="1480" name="neck.caps"/>
  <outline>
    <contour>
      <point x="-21" y="-200" type="curve"/>
      <point x="34" y="-188" type="line"/>
      <point x="32" y="-114"/>
      <point x="77" y="-56"/>
      <point x="153" y="-41" type="curve" smooth="yes"/>
      <point x="265" y="-18"/>
      <point x="613" y="-70"/>
      <point x="753" y="-41" type="curve" smooth="yes"/>
      <point x="855" y="-20"/>
      <point x="941" y="141"/>
      <point x="937" y="248" type="curve"/>
      <point x="882" y="236" type="line"/>
      <point x="884" y="159"/>
      <point x="824" y="28"/>
      <point x="751" y="13" type="curve" smooth="yes"/>
      <point x="644" y="-9"/>
      <point x="286" y="40"/>
      <point x="151" y="12" type="curve" smooth="yes"/>
      <point x="48" y="-9"/>
      <point x="-26" y="-95"/>
    </contour>
    <component base="ya.base.cap" xOffset="105"/>
  </outline>
</glyph>
<glyph name="za.base" format="2">
  <advance width="1243"/>
  <anchor x="800" y="-6" name="haa"/>
  <anchor x="299" y="1202" name="he.acute.top"/>
  <anchor x="686" y="124" name="hee"/>
  <anchor x="864" y="37" name="hi"/>
  <anchor x="62" y="-11" name="ho"/>
  <anchor x="1037" y="681" name="hu"/>
  <anchor x="804" y="0" name="hwa"/>
  <anchor x="593" y="970" name="zha"/>
  <outline>
    <contour>
      <point x="41" y="0" type="line"/>
      <point x="95" y="0" type="line"/>
      <point x="203" y="611" type="line"/>
      <point x="879" y="611" type="line"/>
      <point x="771" y="0" type="line"/>
      <point x="825" y="0" type="line"/>
      <point x="1016" y="1082" type="line"/>
      <point x="962" y="1082" type="line"/>
      <point x="888" y="665" type="line"/>
      <point x="212" y="665" type="line"/>
      <point x="286" y="1082" type="line"/>
      <point x="232" y="1082" type="line"/>
    </contour>
  </outline>
</glyph>
